<svg viewBox="0 0 160 160" fill="none" xmlns="http://www.w3.org/2000/svg">
    <path
        fill="#fff"
        fill-rule="evenodd"
        d="M56 0C47.1634 0 40 7.16344 40 16V104C40 112.837 47.1634 120 56 120H144C152.837 120 160 112.837 160 104V16C160 7.16344 152.837 0 144 0H56ZM58 10C53.5817 10 50 13.5817 50 18V102C50 106.418 53.5817 110 58 110H142C146.418 110 150 106.418 150 102V18C150 13.5817 146.418 10 142 10H58Z" />
    <path
        fill="#fff"
        fill-rule="evenodd"
        d="M30 40H16C7.16344 40 0 47.1634 0 56V144C0 152.837 7.16344 160 16 160H104C112.837 160 120 152.837 120 144V130H110V142C110 146.418 106.418 150 102 150H18C13.5817 150 10 146.418 10 142V58C10 53.5817 13.5817 50 18 50H30V40Z" />
</svg>
