<svg viewBox="0 0 160 160" fill="none" xmlns="http://www.w3.org/2000/svg">
    <!--! Copyright © 2023 Stratis Dermanoutsos -->
    <path
        fill="#fff"
        fill-rule="evenodd"
        d="M56 0C47.1634 0 40 7.16344 40 16V104C40 112.837 47.1634 120 56 120H144C152.837 120 160 112.837 160 104V16C160 7.16344 152.837 0 144 0H56ZM63 15C58.5817 15 55 18.5817 55 23V97C55 101.418 58.5817 105 63 105H137C141.418 105 145 101.418 145 97V23C145 18.5817 141.418 15 137 15H63Z" />
    <path
        fill="#fff"
        fill-rule="evenodd"
        d="M30 40H16C7.16344 40 0 47.1634 0 56V144C0 152.837 7.16344 160 16 160H104C112.837 160 120 152.837 120 144V130H105V137C105 141.418 101.418 145 97 145H23C18.5817 145 15 141.418 15 137V63C15 58.5817 18.5817 55 23 55H30V40Z" />
</svg>
