<svg xmlns="http://www.w3.org/2000/svg" fill="none" viewBox="0 0 512 512"><path fill="#fff" fill-rule="evenodd" d="M432.819 37.3285C424.217 33.8908 414.829 32 405 32H107C65.5786 32 32 65.5787 32 107V405C32 446.421 65.5787 480 107 480H405C446.421 480 480 446.421 480 405V107C480 97.4837 478.228 88.3813 474.995 80.005L440 115V405C440 424.33 424.33 440 405 440H107C87.67 440 72 424.33 72 405V107C72 87.67 87.67 72 107 72H398.147L432.819 37.3285Z" clip-rule="evenodd"/><rect width="310" height="30" x="266" y="225.4" fill="#fff" rx="10" transform="rotate(-45 266 225.4)"/><rect width="129.6" height="36.6" x="266" y="335" fill="#fff" rx="10"/><path fill="#fff" d="M116.412 156.814C116.412 154.275 117.193 152.078 118.756 150.223C120.416 148.367 122.369 147.439 124.615 147.439H243.561C246.1 147.439 248.004 148.27 249.273 149.93C250.641 151.492 251.324 153.445 251.324 155.789V171.756C251.324 174.002 250.641 175.955 249.273 177.615C248.004 179.178 246.1 179.959 243.561 179.959H153.18V252.762H225.982C228.521 252.762 230.426 253.592 231.695 255.252C233.062 256.912 233.746 258.865 233.746 261.111V276.932C233.746 279.178 233.062 281.131 231.695 282.791C230.426 284.354 228.521 285.135 225.982 285.135H153.033V362.625C153.033 365.164 152.203 367.361 150.543 369.217C148.98 371.072 147.076 372 144.83 372H124.469C122.223 372 120.318 371.072 118.756 369.217C117.193 367.361 116.412 365.164 116.412 362.625V156.814Z"/></svg>